<svg width="108" height="108" viewBox="0 0 108 108" fill="none" xmlns="http://www.w3.org/2000/svg">
<circle cx="54" cy="54" r="54" fill="#00FFE0"/>
<path d="M51.6899 67.5156C52.4404 68.5063 52.8445 69.3221 52.9022 69.9632C53.0177 70.6625 52.9022 71.3035 52.5558 71.8863C52.3249 72.4691 51.9208 72.9936 51.3435 73.4598C50.7662 73.926 50.2178 74.4213 49.6982 74.9458C47.2736 74.4796 44.5892 73.1684 41.645 71.0122C38.7586 68.7977 35.8432 66.3792 32.899 63.7567C30.0126 61.076 27.2705 58.4244 24.6726 55.802C22.0748 53.1796 19.9389 51.1982 18.2647 49.8578C14.801 47.0605 12.03 44.9626 9.95171 43.564C7.98892 42.1653 6.54569 41.2912 5.62202 40.9415C4.5829 39.776 3.91901 38.6979 3.63037 37.7072C3.34172 36.7165 3.22626 35.7841 3.28399 34.9099C3.39945 33.9775 3.63037 33.0451 3.97674 32.1126C4.32312 31.1802 4.64063 30.1604 4.92927 29.0531C5.62202 28.82 6.34364 28.2081 7.09412 27.2174C7.8446 26.2267 8.16211 25.2069 8.04665 24.1579C8.56621 24.5658 9.2301 24.595 10.0383 24.2453C10.9042 23.8374 11.3661 23.3712 11.4238 22.8467C12.5784 23.546 13.7041 24.391 14.801 25.3817C16.0133 26.3724 17.1679 27.3631 18.2647 28.3538C19.3616 29.3445 20.4295 30.2478 21.4687 31.0637C22.6233 31.8795 23.7201 32.4623 24.7592 32.812C27.7034 35.6675 30.7631 38.5813 33.9382 41.5534C37.171 44.5838 40.2018 47.4102 43.0305 50.0326C43.7233 51.3147 44.7047 52.6551 45.9747 54.0537C47.3025 55.3941 48.5148 56.7927 49.6116 58.2496C50.7662 59.6483 51.6033 61.1343 52.1228 62.7078C52.6424 64.2812 52.4981 65.8838 51.6899 67.5156Z" fill="#FF00E5"/>
<path d="M8.86207 72.0528C7.88429 72.8005 7.07906 73.2031 6.44638 73.2606C5.75619 73.3757 5.12351 73.2606 4.54835 72.9155C3.97318 72.6855 3.45554 72.2828 2.99541 71.7077C2.53528 71.1325 2.04639 70.5861 1.52875 70.0685C1.98887 67.6528 3.28299 64.9783 5.41109 62.045C7.59671 59.1691 9.98363 56.2646 12.5719 53.3312C15.2176 50.4554 17.8346 47.7234 20.4228 45.1352C23.0111 42.5469 24.9666 40.4188 26.2895 38.7509C29.0503 35.2999 31.1209 32.5391 32.5012 30.4685C33.8816 28.513 34.7444 27.0751 35.0895 26.1548C36.2398 25.1195 37.3039 24.4581 38.2816 24.1705C39.2594 23.8829 40.1797 23.7679 41.0424 23.8254C41.9627 23.9404 42.8829 24.1705 43.8032 24.5156C44.7234 24.8607 45.73 25.177 46.8228 25.4646C47.0529 26.1548 47.6568 26.8738 48.6346 27.6215C49.6123 28.3692 50.6189 28.6855 51.6542 28.5705C51.2515 29.0881 51.2228 29.7496 51.5679 30.5548C51.9705 31.4176 52.4306 31.8777 52.9483 31.9352C52.2581 33.0855 51.4241 34.2071 50.4463 35.2999C49.4685 36.5077 48.4908 37.6581 47.513 38.7509C46.5352 39.8437 45.6437 40.9077 44.8385 41.943C44.0333 43.0934 43.4581 44.1862 43.113 45.2215C40.2947 48.1548 37.4189 51.2031 34.4856 54.3665C31.4947 57.5874 28.7052 60.6071 26.1169 63.4253C24.8516 64.1155 23.5287 65.0933 22.1483 66.3587C20.8254 67.6815 19.4451 68.8894 18.0072 69.9822C16.6268 71.1325 15.1601 71.9665 13.6072 72.4842C12.0542 73.0018 10.4725 72.858 8.86207 72.0528Z" fill="#FF00E5"/>
<path d="M104.784 67.6153C105.532 68.593 105.935 69.3983 105.992 70.0309C106.107 70.7211 105.992 71.3538 105.647 71.929C105.417 72.5041 105.015 73.0218 104.439 73.4819C103.864 73.942 103.318 74.4309 102.8 74.9486C100.384 74.4884 97.7099 73.1943 94.7766 71.0662C91.9008 68.8806 88.9962 66.4937 86.0629 63.9055C83.1871 61.2597 80.4551 58.6427 77.8668 56.0545C75.2786 53.4663 73.1505 51.5107 71.4825 50.1878C68.0316 47.4271 65.2708 45.3565 63.2002 43.9761C61.2446 42.5957 59.8067 41.7329 58.8865 41.3878C57.8512 40.2375 57.1898 39.1735 56.9022 38.1957C56.6146 37.2179 56.4996 36.2977 56.5571 35.4349C56.6721 34.5147 56.9022 33.5944 57.2473 32.6741C57.5924 31.7539 57.9087 30.7473 58.1963 29.6545C58.8865 29.4245 59.6054 28.8205 60.3531 27.8428C61.1009 26.865 61.4172 25.8585 61.3022 24.8232C61.8198 25.2258 62.4812 25.2545 63.2865 24.9094C64.1492 24.5068 64.6093 24.0467 64.6669 23.5291C65.8172 24.2192 66.9388 25.0532 68.0316 26.031C69.2394 27.0088 70.3897 27.9866 71.4825 28.9643C72.5753 29.9421 73.6394 30.8336 74.6747 31.6388C75.825 32.4441 76.9178 33.0192 77.9531 33.3643C80.8864 36.1826 83.9348 39.0584 87.0982 41.9918C90.3191 44.9826 93.3387 47.7722 96.157 50.3604C96.8472 51.6257 97.825 52.9486 99.0903 54.329C100.413 55.6519 101.621 57.0323 102.714 58.4702C103.864 59.8506 104.698 61.3172 105.216 62.8702C105.733 64.4231 105.59 66.0048 104.784 67.6153Z" fill="#FF00E5"/>
<path d="M62.3311 72.5091C61.3404 73.2413 60.5245 73.6355 59.8835 73.6919C59.1841 73.8045 58.5431 73.6919 57.9603 73.3539C57.3776 73.1286 56.8531 72.7344 56.3869 72.1712C55.9207 71.608 55.4253 71.0729 54.9008 70.566C55.367 68.2005 56.6783 65.5816 58.8345 62.7092C61.049 59.8932 63.4675 57.049 66.0899 54.1766C68.7706 51.3605 71.4222 48.6853 74.0446 46.1508C76.6671 43.6164 78.6485 41.5325 79.9888 39.8992C82.7861 36.5199 84.8841 33.8165 86.2827 31.7889C87.6813 29.874 88.5555 28.466 88.9051 27.5649C90.0707 26.5511 91.1488 25.9034 92.1395 25.6218C93.1302 25.3402 94.0626 25.2275 94.9367 25.2839C95.8692 25.3965 96.8016 25.6218 97.734 25.9597C98.6664 26.2976 99.6863 26.6074 100.794 26.889C101.027 27.5649 101.639 28.2689 102.629 29.001C103.62 29.7332 104.64 30.043 105.689 29.9303C105.281 30.4372 105.252 31.0849 105.601 31.8734C106.009 32.7182 106.475 33.1688 107 33.2251C106.301 34.3516 105.456 35.4498 104.465 36.5199C103.474 37.7027 102.484 38.8291 101.493 39.8992C100.502 40.9693 99.5989 42.0112 98.783 43.025C97.9671 44.1514 97.3844 45.2215 97.0347 46.2353C94.1792 49.1077 91.2653 52.0927 88.2932 55.1904C85.2629 58.3444 82.4364 61.3012 79.814 64.0609C78.5319 64.7368 77.1916 65.6943 75.7929 66.9333C74.4526 68.2287 73.0539 69.4115 71.597 70.4816C70.1984 71.608 68.7123 72.4246 67.1389 72.9315C65.5654 73.4384 63.9628 73.2976 62.3311 72.5091Z" fill="#FF00E5"/>
</svg>
