<svg width="430" height="133" viewBox="0 0 430 133" fill="none" xmlns="http://www.w3.org/2000/svg">
<path d="M13.4048 109.728H0L9.86742 63.1832H23.2722L22.0621 68.9547C24.7927 66.6585 26.9337 65.1381 28.4852 64.3934C30.0987 63.5866 31.7123 63.1832 33.3258 63.1832C35.2496 63.1832 36.8011 63.8659 37.9802 65.2312C39.1594 66.5344 39.7489 68.179 39.7489 70.1649C39.7489 72.0887 39.1283 73.7023 37.8872 75.0055C36.646 76.3087 35.0324 76.9604 33.0465 76.9604C31.9915 76.9604 31.1537 76.7121 30.5331 76.2157C29.9746 75.7192 29.5712 74.6952 29.323 73.1437C29.1368 72.1508 28.9196 71.5302 28.6714 71.2819C28.4231 70.9716 28.0818 70.8165 27.6474 70.8165C26.5924 70.8165 25.5994 71.0337 24.6685 71.4681C23.7377 71.9025 22.4654 72.8645 20.8519 74.3539L13.4048 109.728Z" fill="white"/>
<path d="M67.245 67.4653V68.1169L68.269 63.1832H81.6738L74.9714 94.8334C74.8473 95.3919 74.7542 95.9195 74.6922 96.4159C74.6301 96.8503 74.5991 97.3158 74.5991 97.8123C74.5991 99.1776 74.9094 100.202 75.53 100.884C76.1505 101.505 77.1125 101.815 78.4157 101.815C80.0292 101.815 81.4876 101.07 82.7909 99.5809C84.0941 98.0295 85.1491 95.8574 85.9559 93.0647H89.8656C87.8797 98.7742 85.3043 103.087 82.1393 106.004C78.9742 108.859 75.3127 110.286 71.1548 110.286C68.4862 110.286 66.3452 109.541 64.7316 108.052C63.1802 106.563 62.2803 104.453 62.0321 101.722C60.1082 104.577 57.9672 106.718 55.6089 108.145C53.3127 109.572 50.8304 110.286 48.1618 110.286C44.3142 110.286 41.2733 108.983 39.0391 106.376C36.8671 103.77 35.781 100.077 35.781 95.2989C35.781 91.8235 36.3085 88.1931 37.3635 84.4075C38.4185 80.6219 39.8769 77.1776 41.7387 74.0746C44.0349 70.4131 46.7034 67.6204 49.7443 65.6966C52.7852 63.7107 56.1054 62.7178 59.7049 62.7178C62.1252 62.7178 63.9869 63.1522 65.2902 64.021C66.5934 64.8278 67.245 65.9759 67.245 67.4653ZM66.4072 72.0267C66.4072 71.0958 66.0659 70.289 65.3833 69.6063C64.7006 68.8616 63.7697 68.4893 62.5906 68.4893C59.1773 68.4893 56.1364 71.344 53.4679 77.0535C50.8614 82.7629 49.5582 88.4103 49.5582 93.9956C49.5582 96.4159 49.8995 98.2467 50.5821 99.4879C51.2648 100.667 52.4749 101.257 54.2126 101.257C55.8261 101.257 57.3776 100.481 58.8671 98.9293C60.4185 97.3778 61.4425 95.423 61.939 93.0647L66.4072 72.0267Z" fill="white"/>
<path d="M116.244 67.4653V68.0238L117.268 63.1832H130.673L121.457 106.376C124.56 105.259 126.98 103.708 128.718 101.722C130.518 99.674 132.007 96.7883 133.186 93.0647H137.096C135.668 97.7812 133.621 101.567 130.952 104.422C128.346 107.276 124.901 109.293 120.619 110.472L119.223 117.175C118.106 122.388 116.151 126.328 113.358 128.997C110.566 131.666 106.935 133 102.467 133C99.3018 133 96.7574 132.193 94.8335 130.58C92.9717 128.966 92.0409 126.763 92.0409 123.97C92.0409 120.929 93.282 118.23 95.7644 115.871C98.3088 113.575 102.125 111.651 107.214 110.1L108.331 105.166C106.718 106.842 104.98 108.114 103.118 108.983C101.257 109.852 99.2708 110.286 97.1607 110.286C93.3131 110.286 90.2722 108.983 88.038 106.376C85.866 103.77 84.7799 100.077 84.7799 95.2989C84.7799 91.8235 85.3074 88.1931 86.3624 84.4075C87.4174 80.6219 88.8758 77.1776 90.7376 74.0746C93.0338 70.4131 95.7023 67.6204 98.7432 65.6966C101.784 63.7107 105.104 62.7178 108.704 62.7178C111.124 62.7178 112.986 63.1522 114.289 64.021C115.592 64.8278 116.244 65.9759 116.244 67.4653ZM115.406 71.9336C115.344 70.9406 114.972 70.1338 114.289 69.5133C113.606 68.8306 112.707 68.4893 111.59 68.4893C108.176 68.4893 105.135 71.344 102.467 77.0535C99.8603 82.7629 98.5571 88.4103 98.5571 93.9956C98.5571 96.4159 98.8984 98.2467 99.581 99.4879C100.264 100.667 101.474 101.257 103.212 101.257C104.701 101.257 106.159 100.574 107.587 99.2086C109.076 97.8433 110.1 96.1056 110.659 93.9956L115.406 71.9336ZM106.283 114.754C103.18 115.934 100.884 117.144 99.3949 118.385C97.9055 119.688 97.1607 121.115 97.1607 122.667C97.1607 123.474 97.471 124.187 98.0916 124.808C98.7122 125.429 99.4569 125.739 100.326 125.739C101.381 125.739 102.405 124.994 103.398 123.505C104.391 122.015 105.166 119.998 105.725 117.454L106.283 114.754Z" fill="white"/>
<path d="M163.425 67.4653V68.1169L164.449 63.1832H177.853L171.151 94.8334C171.027 95.3919 170.934 95.9195 170.872 96.4159C170.81 96.8503 170.779 97.3158 170.779 97.8123C170.779 99.1776 171.089 100.202 171.71 100.884C172.33 101.505 173.292 101.815 174.595 101.815C176.209 101.815 177.667 101.07 178.971 99.5809C180.274 98.0295 181.329 95.8574 182.136 93.0647H186.045C184.059 98.7742 181.484 103.087 178.319 106.004C175.154 108.859 171.492 110.286 167.334 110.286C164.666 110.286 162.525 109.541 160.911 108.052C159.36 106.563 158.46 104.453 158.212 101.722C156.288 104.577 154.147 106.718 151.789 108.145C149.492 109.572 147.01 110.286 144.342 110.286C140.494 110.286 137.453 108.983 135.219 106.376C133.047 103.77 131.961 100.077 131.961 95.2989C131.961 91.8235 132.488 88.1931 133.543 84.4075C134.598 80.6219 136.057 77.1776 137.918 74.0746C140.215 70.4131 142.883 67.6204 145.924 65.6966C148.965 63.7107 152.285 62.7178 155.885 62.7178C158.305 62.7178 160.167 63.1522 161.47 64.021C162.773 64.8278 163.425 65.9759 163.425 67.4653ZM162.587 72.0267C162.587 71.0958 162.246 70.289 161.563 69.6063C160.88 68.8616 159.949 68.4893 158.77 68.4893C155.357 68.4893 152.316 71.344 149.648 77.0535C147.041 82.7629 145.738 88.4103 145.738 93.9956C145.738 96.4159 146.079 98.2467 146.762 99.4879C147.444 100.667 148.655 101.257 150.392 101.257C152.006 101.257 153.557 100.481 155.047 98.9293C156.598 97.3778 157.622 95.423 158.119 93.0647L162.587 72.0267Z" fill="white"/>
<path d="M201.253 102.746C202.618 102.87 203.642 102.963 204.325 103.025C205.07 103.087 205.721 103.118 206.28 103.118C207.645 103.118 208.669 102.963 209.352 102.653C210.096 102.343 210.531 101.877 210.655 101.257C210.096 101.194 209.662 101.008 209.352 100.698C209.041 100.326 208.886 99.8602 208.886 99.3017C208.886 98.2467 209.383 97.3158 210.376 96.509C211.369 95.7022 212.61 95.2989 214.099 95.2989C215.402 95.2989 216.395 95.7022 217.078 96.509C217.823 97.3158 218.195 98.4018 218.195 99.7671C218.195 102.312 217.078 104.608 214.844 106.656C212.672 108.704 210.003 109.728 206.838 109.728H182.17L205.907 68.21H200.694C198.771 68.21 197.436 68.3341 196.692 68.5824C195.947 68.8306 195.575 69.203 195.575 69.6994C195.575 69.6994 195.73 69.8236 196.04 70.0718C196.412 70.32 196.599 70.8786 196.599 71.7474C196.599 73.2368 196.102 74.447 195.109 75.3779C194.178 76.2467 192.999 76.6811 191.572 76.6811C190.331 76.6811 189.307 76.3087 188.5 75.564C187.693 74.8193 187.29 73.8264 187.29 72.5852C187.29 70.289 188.345 68.148 190.455 66.1621C192.627 64.1762 195.171 63.1832 198.088 63.1832H222.012L199.205 102.56C199.391 102.56 199.608 102.591 199.857 102.653C200.167 102.653 200.632 102.684 201.253 102.746Z" fill="white"/>
<path d="M241.07 102.746C242.436 102.87 243.46 102.963 244.142 103.025C244.887 103.087 245.539 103.118 246.097 103.118C247.462 103.118 248.486 102.963 249.169 102.653C249.914 102.343 250.348 101.877 250.472 101.257C249.914 101.194 249.479 101.008 249.169 100.698C248.859 100.326 248.704 99.8602 248.704 99.3017C248.704 98.2467 249.2 97.3158 250.193 96.509C251.186 95.7022 252.427 95.2989 253.917 95.2989C255.22 95.2989 256.213 95.7022 256.895 96.509C257.64 97.3158 258.012 98.4018 258.012 99.7671C258.012 102.312 256.895 104.608 254.661 106.656C252.489 108.704 249.821 109.728 246.656 109.728H221.987L245.725 68.21H240.512C238.588 68.21 237.254 68.3341 236.509 68.5824C235.764 68.8306 235.392 69.203 235.392 69.6994C235.392 69.6994 235.547 69.8236 235.857 70.0718C236.23 70.32 236.416 70.8786 236.416 71.7474C236.416 73.2368 235.919 74.447 234.926 75.3779C233.995 76.2467 232.816 76.6811 231.389 76.6811C230.148 76.6811 229.124 76.3087 228.317 75.564C227.51 74.8193 227.107 73.8264 227.107 72.5852C227.107 70.289 228.162 68.148 230.272 66.1621C232.444 64.1762 234.988 63.1832 237.905 63.1832H261.829L239.022 102.56C239.208 102.56 239.426 102.591 239.674 102.653C239.984 102.653 240.45 102.684 241.07 102.746Z" fill="white"/>
<path d="M262.332 99.1155C262.332 98.3087 262.394 97.4089 262.519 96.4159C262.643 95.3609 262.829 94.2439 263.077 93.0647L269.407 63.1832H282.812L276.109 94.8334C275.985 95.3919 275.892 95.9195 275.83 96.4159C275.768 96.8503 275.737 97.3158 275.737 97.8123C275.737 99.0534 276.016 99.9533 276.575 100.512C277.195 101.008 278.188 101.257 279.554 101.257C281.291 101.257 282.936 100.512 284.487 99.0224C286.039 97.4709 287.187 95.485 287.932 93.0647H291.841C289.856 98.7121 287.187 102.994 283.836 105.911C280.485 108.828 276.637 110.286 272.293 110.286C269.19 110.286 266.739 109.324 264.939 107.4C263.201 105.415 262.332 102.653 262.332 99.1155Z" fill="white"/>
<path d="M33.5134 53.8745L22.6406 34.1396H19.5873V53.8745H6.85278V1.59577H28.226C32.3467 1.59577 35.8469 2.31566 38.7264 3.75543C41.6556 5.1952 43.8401 7.1811 45.2799 9.71311C46.7196 12.1955 47.4395 14.9757 47.4395 18.0539C47.4395 21.5292 46.4466 24.6322 44.4607 27.3628C42.5244 30.0934 39.6449 32.0296 35.822 33.1715L47.8863 53.8745H33.5134ZM19.5873 25.1286H27.4813C29.8147 25.1286 31.5524 24.5577 32.6942 23.4158C33.8858 22.2739 34.4815 20.6604 34.4815 18.5752C34.4815 16.5893 33.8858 15.0254 32.6942 13.8835C31.5524 12.7416 29.8147 12.1707 27.4813 12.1707H19.5873V25.1286Z" fill="white"/>
<path d="M87.9774 44.64H68.466L65.3382 53.8745H52.0078L70.9235 1.59577H85.6688L104.584 53.8745H91.1051L87.9774 44.64ZM84.7006 34.8099L78.2217 15.6708L71.8171 34.8099H84.7006Z" fill="white"/>
<path d="M108.182 27.6606C108.182 22.4973 109.299 17.9049 111.533 13.8835C113.767 9.81241 116.87 6.6598 120.842 4.42567C124.863 2.14189 129.406 1 134.47 1C140.676 1 145.988 2.63836 150.407 5.91509C154.825 9.19182 157.779 13.6601 159.269 19.3199H145.268C144.226 17.1354 142.736 15.4722 140.8 14.3303C138.913 13.1884 136.754 12.6175 134.321 12.6175C130.399 12.6175 127.221 13.9828 124.789 16.7134C122.356 19.444 121.14 23.0931 121.14 27.6606C121.14 32.2282 122.356 35.8773 124.789 38.6079C127.221 41.3385 130.399 42.7038 134.321 42.7038C136.754 42.7038 138.913 42.1329 140.8 40.991C142.736 39.8491 144.226 38.1859 145.268 36.0014H159.269C157.779 41.6612 154.825 46.1295 150.407 49.4062C145.988 52.6333 140.676 54.2468 134.47 54.2468C129.406 54.2468 124.863 53.1297 120.842 50.8956C116.87 48.6118 113.767 45.4592 111.533 41.4378C109.299 37.4163 108.182 32.824 108.182 27.6606Z" fill="white"/>
<path d="M179.802 1.59577V53.8745H167.067V1.59577H179.802Z" fill="white"/>
<path d="M235.798 53.8745H223.064L201.765 21.6285V53.8745H189.031V1.59577H201.765L223.064 33.9907V1.59577H235.798V53.8745Z" fill="white"/>
<path d="M279.733 18.1283C278.789 16.3907 277.424 15.075 275.637 14.1814C273.899 13.2381 271.839 12.7664 269.456 12.7664C265.335 12.7664 262.034 14.1317 259.551 16.8623C257.069 19.5433 255.828 23.1427 255.828 27.6606C255.828 32.4764 257.118 36.2496 259.7 38.9802C262.331 41.6612 265.931 43.0017 270.498 43.0017C273.626 43.0017 276.257 42.2073 278.392 40.6186C280.577 39.0299 282.166 36.7461 283.158 33.7673H266.998V24.3839H294.701V36.2248C293.758 39.4022 292.145 42.3563 289.861 45.0869C287.627 47.8175 284.772 50.0268 281.297 51.7148C277.821 53.4028 273.899 54.2468 269.53 54.2468C264.367 54.2468 259.75 53.1297 255.679 50.8956C251.657 48.6118 248.505 45.4592 246.221 41.4378C243.987 37.4163 242.87 32.824 242.87 27.6606C242.87 22.4973 243.987 17.9049 246.221 13.8835C248.505 9.81241 251.657 6.6598 255.679 4.42567C259.7 2.14189 264.292 1 269.456 1C275.711 1 280.974 2.51424 285.244 5.54273C289.563 8.57123 292.418 12.7664 293.808 18.1283H279.733Z" fill="white"/>
<circle cx="376" cy="54" r="54" fill="#00FFE0"/>
<path d="M373.69 67.5156C374.44 68.5063 374.844 69.3221 374.902 69.9632C375.018 70.6625 374.902 71.3035 374.556 71.8863C374.325 72.4691 373.921 72.9936 373.344 73.4598C372.766 73.926 372.218 74.4213 371.698 74.9458C369.274 74.4796 366.589 73.1684 363.645 71.0122C360.759 68.7977 357.843 66.3792 354.899 63.7567C352.013 61.076 349.27 58.4244 346.673 55.802C344.075 53.1796 341.939 51.1982 340.265 49.8578C336.801 47.0605 334.03 44.9626 331.952 43.564C329.989 42.1653 328.546 41.2912 327.622 40.9415C326.583 39.776 325.919 38.6979 325.63 37.7072C325.342 36.7165 325.226 35.7841 325.284 34.9099C325.399 33.9775 325.63 33.0451 325.977 32.1126C326.323 31.1802 326.641 30.1604 326.929 29.0531C327.622 28.82 328.344 28.2081 329.094 27.2174C329.845 26.2267 330.162 25.2069 330.047 24.1579C330.566 24.5658 331.23 24.595 332.038 24.2453C332.904 23.8374 333.366 23.3712 333.424 22.8467C334.578 23.546 335.704 24.391 336.801 25.3817C338.013 26.3724 339.168 27.3631 340.265 28.3538C341.362 29.3445 342.43 30.2478 343.469 31.0637C344.623 31.8795 345.72 32.4623 346.759 32.812C349.703 35.6675 352.763 38.5813 355.938 41.5534C359.171 44.5838 362.202 47.4102 365.031 50.0326C365.723 51.3147 366.705 52.6551 367.975 54.0537C369.302 55.3941 370.515 56.7927 371.612 58.2496C372.766 59.6483 373.603 61.1343 374.123 62.7078C374.642 64.2812 374.498 65.8838 373.69 67.5156Z" fill="#FF00E5"/>
<path d="M330.862 72.0528C329.884 72.8005 329.079 73.2031 328.446 73.2606C327.756 73.3757 327.124 73.2606 326.548 72.9155C325.973 72.6855 325.456 72.2828 324.995 71.7077C324.535 71.1325 324.046 70.5861 323.529 70.0685C323.989 67.6528 325.283 64.9783 327.411 62.045C329.597 59.1691 331.984 56.2646 334.572 53.3312C337.218 50.4554 339.835 47.7234 342.423 45.1352C345.011 42.5469 346.967 40.4188 348.289 38.7509C351.05 35.2999 353.121 32.5391 354.501 30.4685C355.882 28.513 356.744 27.0751 357.089 26.1548C358.24 25.1195 359.304 24.4581 360.282 24.1705C361.259 23.8829 362.18 23.7679 363.042 23.8254C363.963 23.9404 364.883 24.1705 365.803 24.5156C366.723 24.8607 367.73 25.177 368.823 25.4646C369.053 26.1548 369.657 26.8738 370.635 27.6215C371.612 28.3692 372.619 28.6855 373.654 28.5705C373.252 29.0881 373.223 29.7496 373.568 30.5548C373.97 31.4176 374.431 31.8777 374.948 31.9352C374.258 33.0855 373.424 34.2071 372.446 35.2999C371.469 36.5077 370.491 37.6581 369.513 38.7509C368.535 39.8437 367.644 40.9077 366.838 41.943C366.033 43.0934 365.458 44.1862 365.113 45.2215C362.295 48.1548 359.419 51.2031 356.486 54.3665C353.495 57.5874 350.705 60.6071 348.117 63.4253C346.852 64.1155 345.529 65.0933 344.148 66.3587C342.825 67.6815 341.445 68.8894 340.007 69.9822C338.627 71.1325 337.16 71.9665 335.607 72.4842C334.054 73.0018 332.473 72.858 330.862 72.0528Z" fill="#FF00E5"/>
<path d="M426.784 67.6153C427.532 68.593 427.935 69.3983 427.992 70.0309C428.107 70.7211 427.992 71.3538 427.647 71.929C427.417 72.5041 427.015 73.0218 426.439 73.4819C425.864 73.942 425.318 74.4309 424.8 74.9486C422.384 74.4884 419.71 73.1943 416.777 71.0662C413.901 68.8806 410.996 66.4937 408.063 63.9055C405.187 61.2597 402.455 58.6427 399.867 56.0545C397.279 53.4663 395.151 51.5107 393.483 50.1878C390.032 47.4271 387.271 45.3565 385.2 43.9761C383.245 42.5957 381.807 41.7329 380.886 41.3878C379.851 40.2375 379.19 39.1735 378.902 38.1957C378.615 37.2179 378.5 36.2977 378.557 35.4349C378.672 34.5147 378.902 33.5944 379.247 32.6741C379.592 31.7539 379.909 30.7473 380.196 29.6545C380.886 29.4245 381.605 28.8205 382.353 27.8428C383.101 26.865 383.417 25.8585 383.302 24.8232C383.82 25.2258 384.481 25.2545 385.286 24.9094C386.149 24.5068 386.609 24.0467 386.667 23.5291C387.817 24.2192 388.939 25.0532 390.032 26.031C391.239 27.0088 392.39 27.9866 393.483 28.9643C394.575 29.9421 395.639 30.8336 396.675 31.6388C397.825 32.4441 398.918 33.0192 399.953 33.3643C402.886 36.1826 405.935 39.0584 409.098 41.9918C412.319 44.9826 415.339 47.7722 418.157 50.3604C418.847 51.6257 419.825 52.9486 421.09 54.329C422.413 55.6519 423.621 57.0323 424.714 58.4702C425.864 59.8506 426.698 61.3172 427.216 62.8702C427.733 64.4231 427.59 66.0048 426.784 67.6153Z" fill="#FF00E5"/>
<path d="M384.331 72.5091C383.34 73.2413 382.525 73.6355 381.883 73.6919C381.184 73.8045 380.543 73.6919 379.96 73.3539C379.378 73.1286 378.853 72.7344 378.387 72.1712C377.921 71.608 377.425 71.0729 376.901 70.566C377.367 68.2005 378.678 65.5816 380.834 62.7092C383.049 59.8932 385.467 57.049 388.09 54.1766C390.771 51.3605 393.422 48.6853 396.045 46.1508C398.667 43.6164 400.648 41.5325 401.989 39.8992C404.786 36.5199 406.884 33.8165 408.283 31.7889C409.681 29.874 410.555 28.466 410.905 27.5649C412.071 26.5511 413.149 25.9034 414.139 25.6218C415.13 25.3402 416.063 25.2275 416.937 25.2839C417.869 25.3965 418.802 25.6218 419.734 25.9597C420.666 26.2976 421.686 26.6074 422.794 26.889C423.027 27.5649 423.639 28.2689 424.629 29.001C425.62 29.7332 426.64 30.043 427.689 29.9303C427.281 30.4372 427.252 31.0849 427.601 31.8734C428.009 32.7182 428.475 33.1688 429 33.2251C428.301 34.3516 427.456 35.4498 426.465 36.5199C425.474 37.7027 424.484 38.8291 423.493 39.8992C422.502 40.9693 421.599 42.0112 420.783 43.025C419.967 44.1514 419.384 45.2215 419.035 46.2353C416.179 49.1077 413.265 52.0927 410.293 55.1904C407.263 58.3444 404.436 61.3012 401.814 64.0609C400.532 64.7368 399.192 65.6943 397.793 66.9333C396.453 68.2287 395.054 69.4115 393.597 70.4816C392.198 71.608 390.712 72.4246 389.139 72.9315C387.565 73.4384 385.963 73.2976 384.331 72.5091Z" fill="#FF00E5"/>
</svg>
